<svg id="outline" xmlns="http://www.w3.org/2000/svg" viewBox="0 0 827.24 786.6"><defs><style>.cls-1{fill:#fff;}</style></defs><path class="cls-1" d="M133.35,84.3c-18.73,16.17-46.58,45.51-59.3,85.43a54.8,54.8,0,0,1-28,32.27C12.67,218.61,1.17,228.19,7,244c7,19,37,21,114,18,44.14-1.72,87.3-.15,118.17,1.31a125.52,125.52,0,0,1,75.1,29.59c1,.84,1.91,1.62,2.77,2.34a9,9,0,0,1,1.33,12.44C262.89,378,276.66,499,297,500c21,1,53.37-77.14,72-85,7.13-3,14.28-9.23,20.65-16.19a38.54,38.54,0,0,1,53.68-3.4C570.93,505.5,629.8,541,620,698a19.43,19.43,0,0,1-13,17.15c-187.12,65.2-190.9,97-188,102.85,13,26,89-23,157-3,20,6,40-20,40-20,29,42,126,11,157,26,30,14.53,18.77-24.42-72.84-107.76a16.74,16.74,0,0,1-4.24-18.73C724.26,625.89,751.23,419.89,738,297c13.29-27.42,64.55-22.39,87.25-30.23a11.32,11.32,0,0,0,6.65-15.09c-21.58-51.39-77.4-68-182.9-93.68C458.15,38.12,308.69,13.9,169.75,63.27A114.1,114.1,0,0,0,133.35,84.3Z" transform="translate(-5.55 -39.2)"/></svg>